<?xml version="1.0" encoding="utf-8"?>
<!-- Generator: Adobe Illustrator 22.0.0, SVG Export Plug-In . SVG Version: 6.00 Build 0)  -->
<svg version="1.1" id="图层_1" xmlns="http://www.w3.org/2000/svg" xmlns:xlink="http://www.w3.org/1999/xlink" x="0px" y="0px"
	 viewBox="0 0 200 200" style="enable-background:new 0 0 200 200;" xml:space="preserve">
<style type="text/css">
	.st0{fill:#FFFFFF;}
</style>
<g>
	<path class="st0" d="M57.1,107H22.2c-6,0-10.8-4.9-10.8-10.8c0-2.9,1.1-5.6,3.2-7.7c2-2,4.8-3.2,7.7-3.2h34.9V107z M22.2,91.2
		c-1.3,0-2.6,0.5-3.5,1.5c-0.9,0.9-1.5,2.2-1.5,3.5c0,2.8,2.2,5,5,5h29.1v-10H22.2z"/>
</g>
<g>
	<path class="st0" d="M177.8,107h-34.9V85.4h34.9c6,0,10.8,4.9,10.8,10.8c0,2.9-1.1,5.6-3.2,7.7C183.4,105.9,180.7,107,177.8,107z
		 M148.8,101.2h29.1c1.3,0,2.6-0.5,3.5-1.5c0.9-0.9,1.5-2.2,1.5-3.5c0-2.8-2.2-5-5-5h-29.1V101.2z"/>
</g>
<g>
	<path class="st0" d="M148.8,150H51.2V73.5c0-4.1,3.1-7.4,6.9-7.4h83.7c3.8,0,6.9,3.3,6.9,7.4V150z M57.1,144.2h85.8V73.5
		c0-0.9-0.6-1.6-1-1.6H58.1c-0.5,0-1.1,0.7-1.1,1.6V144.2z"/>
</g>
<g>
	<path class="st0" d="M164.6,176.3H35.4v-32.1h129.1V176.3z M41.3,170.5h117.5V150H41.3V170.5z"/>
</g>
<g>
	<path class="st0" d="M178.3,192.8h-8.6c-6,0-11-4.9-11-11v-59.3c0-6.1,4.9-11,11-11h8.6c6,0,11,4.9,11,11v59.3
		C189.3,187.9,184.4,192.8,178.3,192.8z M169.7,117.4c-2.8,0-5.1,2.3-5.1,5.1v59.3c0,2.8,2.3,5.1,5.1,5.1h8.6c2.8,0,5.1-2.3,5.1-5.1
		v-59.3c0-2.8-2.3-5.1-5.1-5.1H169.7z"/>
</g>
<g>
	<path class="st0" d="M30.3,192.8h-8.6c-6,0-11-4.9-11-11v-59.3c0-6.1,4.9-11,11-11h8.6c6,0,11,4.9,11,11v59.3
		C41.3,187.9,36.3,192.8,30.3,192.8z M21.7,117.4c-2.8,0-5.1,2.3-5.1,5.1v59.3c0,2.8,2.3,5.1,5.1,5.1h8.6c2.8,0,5.1-2.3,5.1-5.1
		v-59.3c0-2.8-2.3-5.1-5.1-5.1H21.7z"/>
</g>
<g>
	<path class="st0" d="M123.9,72H76.1V56.2h47.9V72z M81.9,66.1h36.2V62H81.9V66.1z"/>
</g>
<g>
	<path class="st0" d="M136.3,62H63.7L43.8,26.5L56,4.9h24.8L84,9.2h32l3.2-4.3H144l12.3,21.6L136.3,62z M67.1,56.2h65.8l16.7-29.7
		l-9-15.8h-18.5L119,15H81.1l-3.2-4.3H59.4l-9,15.8L67.1,56.2z"/>
</g>
<g>
	<path class="st0" d="M100.6,196C85.9,196,74,185.8,74,173.4v-2.9h53.1v2.9C127.1,185.8,115.2,196,100.6,196z M80.2,176.3
		c1.7,7.8,10.2,13.8,20.4,13.8s18.7-6,20.4-13.8H80.2z"/>
</g>
<g>
	<path class="st0" d="M124.9,47c-7.5,0-13.6-6.1-13.6-13.6s6.1-13.6,13.6-13.6s13.6,6.1,13.6,13.6S132.4,47,124.9,47z M124.9,25.7
		c-4.3,0-7.7,3.5-7.7,7.7c0,4.3,3.5,7.7,7.7,7.7s7.7-3.5,7.7-7.7C132.6,29.2,129.2,25.7,124.9,25.7z"/>
</g>
<g>
	<path class="st0" d="M75.1,47c-7.5,0-13.6-6.1-13.6-13.6s6.1-13.6,13.6-13.6S88.7,26,88.7,33.5S82.6,47,75.1,47z M75.1,25.7
		c-4.3,0-7.7,3.5-7.7,7.7c0,4.3,3.5,7.7,7.7,7.7s7.7-3.5,7.7-7.7C82.8,29.2,79.4,25.7,75.1,25.7z"/>
</g>
<g>
	<path class="st0" d="M120.3,134.6H79.7c-3.4,0-6.2-2.8-6.2-6.2V87.8c0-3.4,2.8-6.2,6.2-6.2h40.5c3.4,0,6.2,2.8,6.2,6.2v40.5
		C126.5,131.8,123.7,134.6,120.3,134.6z"/>
</g>
</svg>
